# xmcd CD database file
#
# Track frame offsets:
#	150
#	12258
#	22243
#	34957
#	53885
#	66612
#	83178
#	97906
#	109905
#	124433
#	133129
#	144438
#	157207
#
# Disc length: 2202 seconds
#
# Revision: 0
# Processed by: cddbd v1.5.2PL0 Copyright (c) Steve Scherf et al.
# Submitted via: CDex 1.70beta2
#
DISCID=c408980d
DTITLE=Hiro - Batida de Maracuja
DYEAR=2008
DGENRE=Jazz
TTITLE0=Samba de verao (Marcos Valle)
TTITLE1=One Note Samba (Tom Jobim)
TTITLE2=Corcovado (Tom Jobim)
TTITLE3=Desafinado (Tom Jobim/Netwon Mendonca)
TTITLE4=Manha de Carnaval (Luiz Bonfa)
TTITLE5=Coisa Mais Linda (Carlos Lyra)
TTITLE6=Pra que discutir com Madame (Haroldo Barbosa)
TTITLE7=O Leaozinho (Caetano Veloso)
TTITLE8=Eu sei que vou te amor (Tom Jobim - Vinicuis de Moraes)
TTITLE9=Para ver as meninas (Paulinho da Viola)
TTITLE10=Coracao Vagabundo (Caetano Veloso)
TTITLE11=The Girl from Ipanema (Tom Jobim - Vinicius de Moraes)
TTITLE12=Chega de Saudade (Tom Jobim - Vinicius de Moraes)
EXTD=YEAR: 2008
EXTT0=
EXTT1=
EXTT2=
EXTT3=
EXTT4=
EXTT5=
EXTT6=
EXTT7=
EXTT8=
EXTT9=
EXTT10=
EXTT11=
EXTT12=
PLAYORDER=
